<svg viewBox="0 0 100 100" xmlns="http://www.w3.org/2000/svg">
  <!-- Ears -->
  <ellipse cx="22" cy="40" rx="14" ry="18" fill="#90A4AE" stroke="#546E7A" stroke-width="2"/>
  <ellipse cx="22" cy="40" rx="9" ry="13" fill="#B0BEC5"/>
  <ellipse cx="78" cy="40" rx="14" ry="18" fill="#90A4AE" stroke="#546E7A" stroke-width="2"/>
  <ellipse cx="78" cy="40" rx="9" ry="13" fill="#B0BEC5"/>
  <!-- Head -->
  <ellipse cx="50" cy="45" rx="28" ry="26" fill="#90A4AE" stroke="#546E7A" stroke-width="2"/>
  <!-- Eyes -->
  <ellipse cx="38" cy="38" rx="5" ry="5.5" fill="white" stroke="#546E7A" stroke-width="1.5"/>
  <ellipse cx="62" cy="38" rx="5" ry="5.5" fill="white" stroke="#546E7A" stroke-width="1.5"/>
  <ellipse cx="39" cy="39" rx="2.5" ry="3" fill="#333"/>
  <ellipse cx="63" cy="39" rx="2.5" ry="3" fill="#333"/>
  <!-- Trunk -->
  <path d="M50,52 Q50,65 45,72 Q42,76 38,78 Q35,80 38,82" fill="none" stroke="#546E7A" stroke-width="4" stroke-linecap="round"/>
  <path d="M50,52 Q50,65 45,72 Q42,76 38,78 Q35,80 38,82" fill="none" stroke="#90A4AE" stroke-width="3" stroke-linecap="round"/>
  <!-- Trunk lines -->
  <path d="M47,60 Q50,61 50,60" fill="none" stroke="#78909C" stroke-width="1" stroke-linecap="round"/>
  <path d="M44,68 Q47,69 48,68" fill="none" stroke="#78909C" stroke-width="1" stroke-linecap="round"/>
  <!-- Tusks -->
  <path d="M42,55 Q38,62 40,65" fill="none" stroke="white" stroke-width="2.5" stroke-linecap="round"/>
  <path d="M58,55 Q62,62 60,65" fill="none" stroke="white" stroke-width="2.5" stroke-linecap="round"/>
  <!-- Cheek blush -->
  <circle cx="30" cy="48" r="4" fill="#F48FB1" opacity="0.35"/>
  <circle cx="70" cy="48" r="4" fill="#F48FB1" opacity="0.35"/>
  <!-- Eyebrows (happy) -->
  <path d="M34,33 Q38,30 42,33" fill="none" stroke="#546E7A" stroke-width="1.5" stroke-linecap="round"/>
  <path d="M58,33 Q62,30 66,33" fill="none" stroke="#546E7A" stroke-width="1.5" stroke-linecap="round"/>
</svg>
