<svg xmlns="http://www.w3.org/2000/svg" viewBox="0 0 100 100">
  <!-- Head -->
  <ellipse cx="50" cy="32" rx="24" ry="22" fill="#9B59B6" stroke="#7D3C98" stroke-width="1.5" stroke-linecap="round" stroke-linejoin="round"/>
  <!-- Head highlight -->
  <ellipse cx="44" cy="24" rx="10" ry="6" fill="white" opacity="0.15"/>
  <!-- Tentacles -->
  <path d="M28 48 Q18 60 12 72 Q10 78 14 80 Q18 78 20 72 Q24 62 30 52" fill="#9B59B6" stroke="#7D3C98" stroke-width="1.2" stroke-linecap="round"/>
  <path d="M33 50 Q28 65 25 78 Q24 84 28 85 Q32 82 30 76 Q32 65 36 54" fill="#8E44AD" stroke="#7D3C98" stroke-width="1.2" stroke-linecap="round"/>
  <path d="M40 52 Q38 68 37 80 Q36 86 40 87 Q44 85 42 78 Q42 66 43 54" fill="#9B59B6" stroke="#7D3C98" stroke-width="1.2" stroke-linecap="round"/>
  <path d="M50 53 Q50 70 50 82 Q50 88 54 87 Q56 84 54 78 Q52 68 52 54" fill="#8E44AD" stroke="#7D3C98" stroke-width="1.2" stroke-linecap="round"/>
  <path d="M58 52 Q60 68 62 78 Q64 85 60 87 Q56 86 58 80 Q58 66 57 54" fill="#9B59B6" stroke="#7D3C98" stroke-width="1.2" stroke-linecap="round"/>
  <path d="M65 50 Q70 65 72 76 Q74 82 70 85 Q66 83 68 76 Q68 64 64 52" fill="#8E44AD" stroke="#7D3C98" stroke-width="1.2" stroke-linecap="round"/>
  <path d="M70 48 Q80 58 85 70 Q88 78 84 80 Q80 78 80 72 Q76 62 68 52" fill="#9B59B6" stroke="#7D3C98" stroke-width="1.2" stroke-linecap="round"/>
  <!-- Suction cups (dots on tentacles) -->
  <circle cx="16" cy="74" r="1" fill="#D2B4DE" opacity="0.7"/>
  <circle cx="27" cy="78" r="1" fill="#D2B4DE" opacity="0.7"/>
  <circle cx="39" cy="81" r="1" fill="#D2B4DE" opacity="0.7"/>
  <circle cx="52" cy="82" r="1" fill="#D2B4DE" opacity="0.7"/>
  <circle cx="61" cy="80" r="1" fill="#D2B4DE" opacity="0.7"/>
  <circle cx="70" cy="78" r="1" fill="#D2B4DE" opacity="0.7"/>
  <circle cx="82" cy="73" r="1" fill="#D2B4DE" opacity="0.7"/>
  <!-- Left eye -->
  <circle cx="40" cy="32" r="5" fill="white" stroke="#7D3C98" stroke-width="0.8"/>
  <circle cx="39" cy="31" r="2.5" fill="#1A1A2E"/>
  <circle cx="38" cy="30" r="1" fill="white"/>
  <!-- Right eye -->
  <circle cx="60" cy="32" r="5" fill="white" stroke="#7D3C98" stroke-width="0.8"/>
  <circle cx="59" cy="31" r="2.5" fill="#1A1A2E"/>
  <circle cx="58" cy="30" r="1" fill="white"/>
  <!-- Smile -->
  <path d="M44 40 Q50 46 56 40" fill="none" stroke="#7D3C98" stroke-width="1.2" stroke-linecap="round"/>
  <!-- Cheek blushes -->
  <circle cx="35" cy="39" r="3" fill="#FF9AA2" opacity="0.35"/>
  <circle cx="65" cy="39" r="3" fill="#FF9AA2" opacity="0.35"/>
</svg>