<svg xmlns="http://www.w3.org/2000/svg" viewBox="0 0 100 100">
  <!-- Corn whole (with husk) - hand sketched style -->
  <!-- Outer husk leaves -->
  <path d="M30 45 C24 50, 18 60, 16 72 C14 80, 16 88, 22 92 C26 85, 30 72, 34 58 C36 50, 35 46, 30 45Z"
    fill="#7ba87b" fill-opacity="0.7" stroke="#4a7a4a" stroke-width="2" stroke-linecap="round" stroke-linejoin="round"/>
  <path d="M70 45 C76 50, 82 60, 84 72 C86 80, 84 88, 78 92 C74 85, 70 72, 66 58 C64 50, 65 46, 70 45Z"
    fill="#7ba87b" fill-opacity="0.7" stroke="#4a7a4a" stroke-width="2" stroke-linecap="round" stroke-linejoin="round"/>
  <!-- Inner husk -->
  <path d="M36 40 C32 48, 28 60, 28 72 C28 82, 32 90, 38 94 C40 86, 40 74, 40 62 C40 52, 38 44, 36 40Z"
    fill="#8bb88b" fill-opacity="0.65" stroke="#5a8a5a" stroke-width="1.5" stroke-linecap="round" stroke-linejoin="round"/>
  <path d="M64 40 C68 48, 72 60, 72 72 C72 82, 68 90, 62 94 C60 86, 60 74, 60 62 C60 52, 62 44, 64 40Z"
    fill="#8bb88b" fill-opacity="0.65" stroke="#5a8a5a" stroke-width="1.5" stroke-linecap="round" stroke-linejoin="round"/>
  <!-- Corn ear (main yellow body) -->
  <path d="M38 20 C36 30, 36 50, 38 70 C40 82, 44 90, 50 95 C56 90, 60 82, 62 70 C64 50, 64 30, 62 20 C58 16, 42 16, 38 20Z"
    fill="#d4a24d" fill-opacity="0.82" stroke="#a07830" stroke-width="2.5" stroke-linecap="round" stroke-linejoin="round"/>
  <!-- Kernel rows (vertical) -->
  <path d="M44 22 C43 40, 43 60, 44 85"
    fill="none" stroke="#c09030" stroke-width="1.2" stroke-linecap="round" stroke-opacity="0.5"/>
  <path d="M50 18 C50 40, 50 60, 50 92"
    fill="none" stroke="#c09030" stroke-width="1.2" stroke-linecap="round" stroke-opacity="0.5"/>
  <path d="M56 22 C57 40, 57 60, 56 85"
    fill="none" stroke="#c09030" stroke-width="1.2" stroke-linecap="round" stroke-opacity="0.5"/>
  <!-- Kernel row bumps (horizontal) -->
  <path d="M40 30 C44 29, 50 28, 56 29 C58 29, 60 30, 60 30"
    fill="none" stroke="#c09030" stroke-width="1" stroke-linecap="round" stroke-opacity="0.4"/>
  <path d="M39 40 C44 39, 52 38, 58 39 C60 39, 61 40, 61 40"
    fill="none" stroke="#c09030" stroke-width="1" stroke-linecap="round" stroke-opacity="0.4"/>
  <path d="M38 50 C44 49, 52 48, 58 49 C60 49, 62 50, 62 50"
    fill="none" stroke="#c09030" stroke-width="1" stroke-linecap="round" stroke-opacity="0.4"/>
  <path d="M38 60 C44 59, 52 58, 58 59 C60 59, 62 60, 62 60"
    fill="none" stroke="#c09030" stroke-width="1" stroke-linecap="round" stroke-opacity="0.4"/>
  <path d="M39 70 C44 69, 52 68, 58 69 C60 69, 61 70, 61 70"
    fill="none" stroke="#c09030" stroke-width="1" stroke-linecap="round" stroke-opacity="0.4"/>
  <path d="M40 80 C44 79, 52 78, 56 79"
    fill="none" stroke="#c09030" stroke-width="1" stroke-linecap="round" stroke-opacity="0.4"/>
  <!-- Silk at top -->
  <path d="M48 18 C44 10, 40 5, 36 2"
    fill="none" stroke="#d4c070" stroke-width="1.2" stroke-linecap="round" stroke-opacity="0.6"/>
  <path d="M50 16 C48 8, 46 3, 44 1"
    fill="none" stroke="#d4c070" stroke-width="1" stroke-linecap="round" stroke-opacity="0.5"/>
  <path d="M52 16 C54 8, 58 4, 62 2"
    fill="none" stroke="#d4c070" stroke-width="1.2" stroke-linecap="round" stroke-opacity="0.6"/>
</svg>
