<svg viewBox="0 0 100 100" xmlns="http://www.w3.org/2000/svg">
  <path d="M50,18 Q52,8 56,5" fill="none" stroke="#5D4037" stroke-width="2.5" stroke-linecap="round"/>
  <path d="M50,16 Q60,10 56,20" fill="#4CAF50" stroke="#2E7D32" stroke-width="1.5"/>
  <path d="M50,16 Q40,10 44,20" fill="#66BB6A" stroke="#2E7D32" stroke-width="1.5"/>
  <!-- top row -->
  <circle cx="40" cy="32" r="9" fill="#AB47BC" stroke="#7B1FA2" stroke-width="1.5"/>
  <circle cx="60" cy="32" r="9" fill="#AB47BC" stroke="#7B1FA2" stroke-width="1.5"/>
  <!-- second row -->
  <circle cx="30" cy="48" r="9" fill="#CE93D8" stroke="#8E24AA" stroke-width="1.5"/>
  <circle cx="50" cy="48" r="9" fill="#CE93D8" stroke="#8E24AA" stroke-width="1.5"/>
  <circle cx="70" cy="48" r="9" fill="#CE93D8" stroke="#8E24AA" stroke-width="1.5"/>
  <!-- third row -->
  <circle cx="40" cy="64" r="9" fill="#AB47BC" stroke="#7B1FA2" stroke-width="1.5"/>
  <circle cx="60" cy="64" r="9" fill="#AB47BC" stroke="#7B1FA2" stroke-width="1.5"/>
  <!-- bottom -->
  <circle cx="50" cy="78" r="9" fill="#9C27B0" stroke="#6A1B9A" stroke-width="1.5"/>
  <!-- highlights -->
  <circle cx="37" cy="29" r="3" fill="white" opacity="0.25"/>
  <circle cx="57" cy="29" r="3" fill="white" opacity="0.25"/>
  <circle cx="27" cy="45" r="3" fill="white" opacity="0.25"/>
  <circle cx="47" cy="45" r="3" fill="white" opacity="0.25"/>
  <circle cx="67" cy="45" r="3" fill="white" opacity="0.25"/>
  <circle cx="37" cy="61" r="3" fill="white" opacity="0.25"/>
  <circle cx="57" cy="61" r="3" fill="white" opacity="0.25"/>
  <circle cx="47" cy="75" r="3" fill="white" opacity="0.25"/>
</svg>
