<svg viewBox="0 0 100 100" xmlns="http://www.w3.org/2000/svg">
  <!-- stem -->
  <path d="M50,20 Q52,12 54,10" fill="none" stroke="#5D4037" stroke-width="2" stroke-linecap="round"/>
  <!-- leaves -->
  <path d="M50,22 Q40,14 35,20 Q40,22 50,22" fill="#4CAF50" stroke="#2E7D32" stroke-width="1"/>
  <path d="M50,22 Q60,14 65,20 Q60,22 50,22" fill="#66BB6A" stroke="#2E7D32" stroke-width="1"/>
  <path d="M50,20 Q48,12 50,18" fill="#81C784" stroke="#2E7D32" stroke-width="1"/>
  <!-- body -->
  <path d="M30,30 Q25,22 50,22 Q75,22 70,30 Q72,55 65,70 Q58,85 50,88 Q42,85 35,70 Q28,55 30,30Z" fill="#EF5350" stroke="#C62828" stroke-width="2"/>
  <!-- seeds -->
  <ellipse cx="42" cy="38" rx="1.5" ry="2" fill="#FFEE58" transform="rotate(-10 42 38)"/>
  <ellipse cx="56" cy="36" rx="1.5" ry="2" fill="#FFEE58" transform="rotate(10 56 36)"/>
  <ellipse cx="38" cy="52" rx="1.5" ry="2" fill="#FFEE58" transform="rotate(-15 38 52)"/>
  <ellipse cx="50" cy="50" rx="1.5" ry="2" fill="#FFEE58"/>
  <ellipse cx="62" cy="50" rx="1.5" ry="2" fill="#FFEE58" transform="rotate(15 62 50)"/>
  <ellipse cx="44" cy="65" rx="1.5" ry="2" fill="#FFEE58" transform="rotate(-10 44 65)"/>
  <ellipse cx="56" cy="64" rx="1.5" ry="2" fill="#FFEE58" transform="rotate(10 56 64)"/>
  <ellipse cx="50" cy="76" rx="1.5" ry="2" fill="#FFEE58"/>
  <!-- highlight -->
  <ellipse cx="38" cy="35" rx="5" ry="8" fill="white" opacity="0.2"/>
</svg>
